<svg id="Group_395" data-name="Group 395" xmlns="http://www.w3.org/2000/svg" width="22.027" height="15.143" viewBox="0 0 22.027 15.143">
  <path id="Path_75" data-name="Path 75" d="M22.027,13.2S17.9,5.625,11.013,5.625,0,13.2,0,13.2s4.13,7.572,11.013,7.572S22.027,13.2,22.027,13.2Zm-20.412,0A18.081,18.081,0,0,0,3.9,16.009a10.259,10.259,0,0,0,7.113,3.382,10.266,10.266,0,0,0,7.115-3.382A18.081,18.081,0,0,0,20.413,13.2a18.08,18.08,0,0,0-2.285-2.813A10.269,10.269,0,0,0,11.013,7,10.266,10.266,0,0,0,3.9,10.384,18.08,18.08,0,0,0,1.613,13.2Z" transform="translate(0 -5.625)" fill="#ababab" fill-rule="evenodd"/>
  <path id="Path_76" data-name="Path 76" d="M14.943,11.5a3.442,3.442,0,1,0,3.442,3.442A3.442,3.442,0,0,0,14.943,11.5Zm-4.818,3.442a4.818,4.818,0,1,1,4.818,4.818A4.818,4.818,0,0,1,10.125,14.943Z" transform="translate(-3.93 -7.372)" fill="#ababab" fill-rule="evenodd"/>
</svg>
